<?xml version="1.0" encoding="iso-8859-1"?>

<!DOCTYPE svg PUBLIC "-//W3C//DTD SVG 1.1//EN" "http://www.w3.org/Graphics/SVG/1.1/DTD/svg11.dtd">
<!-- Uploaded to: SVG Repo, www.svgrepo.com, Generator: SVG Repo Mixer Tools -->
<svg height="800px" width="800px" version="1.1" id="_x36_" xmlns="http://www.w3.org/2000/svg" xmlns:xlink="http://www.w3.org/1999/xlink" 
	 viewBox="0 0 512 512"  xml:space="preserve">
<g>
	<g>
		<g>
			<path style="fill:#B2A39A;" d="M208.296,389.494c0,0,0,23.988,0,48.111v42.486c0,18.838-23.852,30.56-40.996,31.78
				c-2.371,0.204-4.608,0.136-6.64-0.067c-6.505-0.678-7.454-5.624-6.573-8.403c-10.232,2.778-14.027-3.727-8.403-12.129
				c0.136-0.203,0.271-0.407,0.407-0.61c7.589-11.858,22.023-20.871,22.023-20.871V395.05L208.296,389.494z"/>
			<path style="fill:#B2A39A;" d="M343.885,395.076v74.71c0,0,14.949,9.34,22.413,21.483c5.605,8.404,1.866,14.942-8.397,12.139
				c0.933,2.803-0.047,7.686-6.544,8.404c-16.808,1.866-47.626-10.273-47.626-31.753s0-90.585,0-90.585L343.885,395.076z"/>
		</g>
		<path style="fill:#FFFEF5;" d="M483.882,227.544v0.474c0,17.076-8.809,32.119-22.09,40.928
			c8.945,13.146,11.316,30.425,4.743,46.281c-6.573,15.788-20.464,26.359-36.049,29.341c3.117,15.586-1.288,32.39-13.417,44.52
			c-12.062,12.062-28.934,16.534-44.519,13.349c-0.407,1.965-0.881,3.862-1.491,5.76c-0.135,0.407-0.271,0.881-0.407,1.288
			c-0.339,1.017-0.745,1.965-1.152,2.914c-1.355,3.185-3.049,6.234-5.014,9.08c-0.61,0.813-1.22,1.626-1.83,2.372
			c-3.591,4.54-8.064,8.47-13.281,11.587c-0.881,0.474-1.762,0.949-2.643,1.355c-0.949,0.474-1.898,0.948-2.846,1.355
			c-0.203,0.135-0.474,0.271-0.677,0.339c-13.214,5.489-27.443,4.743-39.505-0.881c-1.152-0.542-2.304-1.152-3.456-1.83
			c-1.152-0.61-2.236-1.288-3.321-2.033c-8.741,13.281-23.852,22.023-40.928,22.023h-0.271c-16.94-0.068-31.916-8.809-40.657-22.023
			c-2.168,1.491-4.405,2.778-6.776,3.863c-11.994,5.624-26.224,6.37-39.505,0.881c-0.204-0.068-0.474-0.203-0.678-0.339
			c-15.45-6.641-25.75-20.261-28.663-35.711c-15.585,3.185-32.458-1.287-44.519-13.349c-12.129-12.061-16.534-28.934-13.349-44.52
			c-15.653-2.981-29.544-13.552-36.117-29.341c-6.573-15.789-4.201-33.068,4.743-46.281c-13.281-8.741-22.09-23.784-22.09-40.928
			c0-17.076,8.741-32.119,22.022-40.928c-8.945-13.146-11.316-30.425-4.743-46.281c6.505-15.788,20.396-26.359,36.049-29.341
			c-3.253-15.45,1.152-32.187,12.943-44.249l0.339-0.339c6.302-6.302,13.891-10.571,21.955-12.671
			c7.386-1.965,15.111-2.168,22.565-0.677c2.982-15.653,13.484-29.544,29.34-36.117c15.789-6.573,33.068-4.201,46.281,4.676
			C223.61,8.809,238.653,0.068,255.729,0c17.076,0,32.187,8.741,40.928,22.022c13.214-8.944,30.493-11.316,46.281-4.811
			c15.856,6.573,26.427,20.396,29.408,36.049c4.473-0.881,9.012-1.22,13.484-0.881c0.814,0.068,1.627,0.136,2.44,0.271
			c0.542,0.068,1.152,0.135,1.694,0.271c0.813,0.068,1.626,0.271,2.439,0.407c1.084,0.203,2.168,0.474,3.252,0.813h0.068
			c2.236,0.61,4.405,1.355,6.505,2.372c5.353,2.304,10.367,5.692,14.704,10.029c0.203,0.203,0.406,0.407,0.61,0.677l0.067,0.068
			c1.084,1.152,2.168,2.372,3.117,3.592c1.017,1.287,1.965,2.575,2.846,3.93c1.288,2.033,2.44,4.202,3.388,6.438l0.068,0.068
			c0.339,0.61,0.542,1.22,0.813,1.897c0.61,1.423,1.084,2.914,1.491,4.404c0.881,2.914,1.423,5.895,1.762,8.877
			c0.407,4.879,0.135,9.758-0.814,14.569c15.653,2.981,29.544,13.484,36.117,29.273c6.641,15.788,4.269,33.135-4.608,46.281
			C475.074,195.357,483.815,210.4,483.882,227.544z"/>
		<path style="fill:#B2A39A;" d="M417.611,67.287c-0.135,1.287-0.271,2.643-0.542,4.066c-4.134,23.242-29.544,59.969-73.25,65.051
			c0,0,0,70.946,0,93.376c0,22.429-50.483,42.961-50.483,76.571c0,33.61-37.337,31.78-37.337,31.78s-0.068,0-0.271,0
			c-3.524,0.068-37.066,0.068-37.066-31.78c0-33.61-50.483-54.141-50.483-76.571c0-22.43,0-93.376,0-93.376
			c-46.417-5.353-72.166-46.484-73.792-69.185c-0.61-9.283,2.71-15.449,10.299-14.907c3.524,0.271,7.589,0.881,11.994,1.897
			c15.856,3.388,36.117,10.639,50.753,16.331c11.384,4.404,19.448,7.928,19.448,7.928h138.234c0,0,8.064-3.524,19.448-7.928
			c14.772-5.692,35.168-13.011,51.092-16.399h0.068c1.152-0.271,2.304-0.474,3.388-0.745c2.914-0.542,5.692-0.881,8.199-1.084
			c1.965-0.136,3.659,0.203,5.082,0.881c1.762,0.881,3.049,2.44,3.93,4.405c0,0-0.067,0,0,0.068
			C417.476,60.172,417.815,63.493,417.611,67.287z"/>
		<path style="fill:#FFFEF5;" d="M310.169,33.653c-12.473,0-23.399,6.604-29.474,16.507c-6.664-5.634-15.28-9.039-24.696-9.039
			c-9.417,0-18.032,3.405-24.696,9.039c-6.075-9.903-17-16.507-29.467-16.507c-19.084,0-34.556,15.465-34.556,34.549
			c0,19.088,15.471,34.556,34.556,34.556c7.405,0,14.248-2.336,19.879-6.3c6.267,12.593,19.263,21.242,34.285,21.242
			c15.021,0,28.018-8.649,34.291-21.242c5.618,3.964,12.474,6.3,19.878,6.3c19.084,0,34.556-15.468,34.556-34.556
			C344.725,49.117,329.254,33.653,310.169,33.653z"/>
	</g>
	<path style="opacity:0.15;fill:#231815;" d="M483.882,227.544v0.474c0,17.076-8.809,32.119-22.09,40.928
		c8.945,13.146,11.316,30.425,4.743,46.281c-6.573,15.788-20.464,26.359-36.049,29.341c3.117,15.586-1.288,32.39-13.417,44.52
		c-12.062,12.062-28.934,16.534-44.519,13.349c-0.407,1.965-0.881,3.862-1.491,5.76c-0.135,0.407-0.271,0.881-0.407,1.288
		c-0.339,1.017-0.745,1.965-1.152,2.914c-1.355,3.185-3.049,6.234-5.014,9.08c-0.61,0.813-1.152,1.626-1.83,2.372
		c-3.591,4.54-8.064,8.47-13.281,11.587c-0.881,0.474-1.762,0.949-2.643,1.355c-0.949,0.474-1.898,0.948-2.846,1.355v31.645
		c0,0,14.975,9.351,22.43,21.48c5.556,8.402,1.829,14.908-8.403,12.129c0.949,2.778-0.067,7.725-6.573,8.403
		c-16.805,1.897-47.637-10.232-47.637-31.713v-42.486c-1.152-0.542-2.304-1.152-3.456-1.83c-1.152-0.61-2.236-1.288-3.321-2.033
		c-8.741,13.281-23.852,22.023-40.928,22.023h-0.271V0c17.076,0,32.187,8.741,40.928,22.022
		c13.214-8.944,30.493-11.316,46.281-4.811c15.856,6.573,26.427,20.396,29.408,36.049c4.473-0.881,9.012-1.22,13.484-0.881
		c0.814,0.068,1.627,0.136,2.44,0.271c0.542,0.068,1.152,0.135,1.694,0.271c0.813,0.068,1.626,0.271,2.439,0.407
		c1.084,0.203,2.168,0.474,3.252,0.813h0.068c1.152-0.271,2.304-0.474,3.388-0.745c2.914-0.542,5.692-0.881,8.199-1.084
		c1.965-0.136,3.659,0.203,5.082,0.881c1.694,0.949,2.982,2.44,3.93,4.405c0,0-0.067,0,0,0.068c1.084,2.439,1.491,5.76,1.22,9.554
		l0.067,0.068c1.084,1.152,2.168,2.372,3.117,3.592c1.017,1.287,1.965,2.575,2.846,3.93c1.288,2.033,2.44,4.202,3.388,6.438
		l0.068,0.068c0.339,0.61,0.542,1.22,0.813,1.897c0.61,1.423,1.084,2.914,1.491,4.404c0.881,2.914,1.423,5.895,1.762,8.877
		c0.407,4.879,0.135,9.758-0.814,14.569c15.653,2.981,29.544,13.484,36.117,29.273c6.641,15.788,4.269,33.135-4.608,46.281
		C475.074,195.357,483.815,210.4,483.882,227.544z"/>
</g>
</svg>