<?xml version="1.0" encoding="UTF-8"?>
<svg width="3833px" height="1828px" viewBox="0 0 3833 1828" version="1.1" xmlns="http://www.w3.org/2000/svg" xmlns:xlink="http://www.w3.org/1999/xlink">
    <title>CATAN-Brand-Logo-Black_1</title>
    <g id="Page-1" stroke="none" stroke-width="1" fill="none" fill-rule="evenodd">
        <g id="CATAN-Brand-Logo-Black_1" fill="#000000" fill-rule="nonzero">
            <g id="Group" transform="translate(1916.500000, 914.000000) scale(-1, 1) rotate(-180.000000) translate(-1916.500000, -914.000000) translate(0.000000, -0.000000)">
                <path d="M2456.5,1827.4 C2296.4,1819.3 2150.1,1787.5 2007.9,1729.7 C1861.4,1670.2 1730.1,1587.5 1609,1478.6 C1588.3,1460.1 1530.2,1401.6 1511.9,1381 C1450.5,1311.9 1403,1247.6 1357.2,1171.6 C1352.6,1163.8 1348.6,1157.2 1348.29874,1156.8 C1348.1,1156.3 1371.7,1156 1400.7,1156 L1453.5,1156 L1462.5,1169.7 C1521.6,1260.1 1596.9,1347.2 1678.4,1419.8 C1937.4,1650.2 2275.2,1763 2621,1734.4 C2894.2,1711.9 3149.8,1601.4 3356.9,1416.3 C3378.9,1396.6 3430.8,1344.9 3450.5,1323 C3492.7,1275.9 3536,1219.9 3567,1172.3 L3577.5,1156.1 L3630.3,1156.1 L3683.2,1156 L3680,1161.8 C3666.4,1185.9 3629.1,1242.8 3607.3,1272.5 C3525.7,1384.1 3431,1479.9 3321.5,1561.5 C3161.3,1681 2978,1762.9 2783,1802 C2723.5,1813.9 2668.9,1821.1 2600.5,1826.1 C2586.4,1827.1 2471.7,1828.1 2456.5,1827.4 Z" id="Path"></path>
                <path d="M445,1104.9 C359,1098.7 282.2,1071.1 217,1022.9 C179.6,995.4 142.1,957.8 112.5,918.5 C45.8,829.7 9,723.6 0.9,597.1 C-0.9,569.2 0.3,497.3 2.9,470.5 C8,419.4 16,377.2 28.9,335 C67.2,208.9 148.8,106.2 253.5,52.4 C302.5,27.1 350.6,13.2 412,6.3 C434.3,3.8 501.9,3.8 524,6.3 C604.7,15.4 670.7,41.6 692.1,73.1 C702.2,88 711.3,124.2 716.4,170 C722.7,226 725.1,334 720.5,351 C714.7,372.5 702.3,380.9 678.1,379.8 C670.3,379.5 667.6,378.9 663.5,376.8 C653.2,371.5 645.4,363.5 637.5,350 C629,335.6 623.3,320 614.4,287.5 C594.8,215.8 569.4,150.4 549.2,119.5 C530.5,90.9 508.2,75.5 478.1,70.5 C433.2,63 391.7,84.8 359.1,133 C314.5,199 286.1,300.9 276.6,429 C271.7,494.4 271.7,584.5 276.5,661.5 C286.9,825.4 320.4,942.6 372.4,996.8 C389.4,1014.5 405,1024.4 425.5,1030.6 C433.7,1033.1 436,1033.3 451,1033.4 C466.8,1033.5 467.8,1033.4 475,1030.6 C517.9,1014.3 553.4,963.5 594.3,859.8 C608.2,824.7 617,808.7 628.9,797 C640.9,785.2 653.5,780.5 671.5,781.2 C684.3,781.6 691.7,784.9 696.6,792.1 C703,801.7 704.9,822.5 703.1,861.5 C702.5,874.7 701.1,909.5 700,938.9 C697.2,1011.7 695.4,1027.3 688,1042 C674,1069.7 610.3,1095.1 534,1103.5 C516.7,1105.4 463.3,1106.3 445,1104.9 Z" id="Path"></path>
                <path d="M1107.5,1048.8 C1107.3,1048.1 1047.4,851.5 974.5,612 C901.6,372.5 839.6,169.8 836.9,161.5 C827.5,133.6 817.9,111.8 809.4,98.8 C798.5,82.4 778.9,71 757.3,68.5 C747.1,67.3 748,69.4 748,47.9 L748,29 L888,29 L1028,29 L1028,47.9 L1028,66.7 L1023.4,67.4 C1020.8,67.7 1016.3,68 1013.4,68 C1010.5,68 1002.8,68.7 996.3,69.5 C964.9,73.6 942.5,84.4 935,99.1 C925.3,117.9 927.9,153.6 942.9,208.5 C946.9,223.4 965.7,289.6 973.1,315.2 L975.1,322 L1098.8,322 L1222.5,322 L1247.3,241.8 C1260.9,197.6 1273.1,156.8 1274.5,151 C1278.2,135.6 1279.7,118.9 1278.2,109 C1276.2,94.8 1270.2,86.8 1256.6,80.4 C1244.4,74.6 1221.7,69.8 1200,68.5 C1194.8,68.2 1188.6,67.7 1186.3,67.4 L1182,66.9 L1182,47.9 L1182,29 L1365.5,29 L1549,29 L1549,48 C1549,69.5 1550.1,67.2 1539.5,68.5 C1520,70.9 1501.5,80.9 1491.2,94.6 C1485,102.8 1474.1,123.9 1467.5,140.5 C1459.4,160.7 1452.7,181.8 1313.4,622.8 L1178.5,1050 L1143.2,1050 C1115.9,1050 1107.8,1049.7 1107.5,1048.8 Z M1145.2,571.5 L1192.7,417.5 L1098.7,417.2 C1047,417.1 1004.5,417.1 1004.39856,417.3 C1004.2,417.5 1024.8,487.2 1050.2,572.3 C1075.6,657.4 1096.7,726.7 1097.1,726.301723 C1097.5,725.8 1119.2,656.2 1145.2,571.5 Z" id="Shape"></path>
                <path d="M2319,612.3 C2245.7,371.5 2183.6,168.2 2180.9,160.4 C2170.7,130.2 2159.8,106.5 2151,94.8 C2145.1,87 2136.2,79.9 2127,75.7 C2120.1,72.6 2103.5,68 2099,68 C2092.8,68 2092.99927,68.5 2092.99927,47.9 L2092.99927,29 L2232.5,29 L2372,29 L2372,47.9 L2372,66.7 L2367.4,67.4 C2364.8,67.7 2360.6,68 2358,68 C2355.3,68 2347.6,68.7 2340.8,69.6 C2300.6,74.8 2279.9,88.1 2274.9,111.8 C2273,121 2274.3,148.7 2277.4,165.5 C2280.7,183.9 2287.3,210 2295.8,239 C2299.6,251.9 2306.5,275.9 2311.1,292.3 L2319.5,322 L2443.1,322 L2566.8,322 L2568.9,315.8 C2574.9,297.3 2616.2,162.3 2617.9,155.5 C2622.7,136.5 2624.3,115.4 2621.9,104.2 C2620.3,96.5 2615.4,89.2 2608.7,84.7 C2597.1,76.8 2575.9,71.2 2548.8,69 C2541.5,68.4 2533.6,67.6 2531.3,67.4 L2527,66.9 L2527,47.9 L2527,29 L2710,29 L2893.00073,29 L2893.00073,47.9 C2893.00073,68.5 2893.2,68 2887,68 C2881.8,68 2864.7,73 2857.1,76.7 C2835,87.6 2819.6,114.1 2798.7,177.5 C2795.6,186.9 2733.6,382.8 2661,613 C2588.3,843.2 2527.5,1035.7 2525.9,1040.8 L2522.9,1050 L2487.6,1050 L2452.4,1050 L2319,612.3 Z M2489.5,572.1 C2515.7,487.2 2536.9,417.6 2536.7014,417.4 C2536.5,417.2 2494,417.1 2442.4,417.2 L2348.4,417.5 L2393.6,569 C2418.5,652.3 2439.4,722.3 2440.1,724.5 C2440.7,726.7 2441.4,728.1 2441.6,727.5 C2441.8,727 2463.3,657 2489.5,572.1 Z" id="Shape"></path>
                <path d="M1489,942.6 C1489,865.3 1488.3,810.5 1486.5,750.8 L1485.9,731 L1504.3,731 L1522.7,731 L1523.9,741.8 C1531.1,807.4 1545.3,848.2 1574.4,887 C1604.9,927.6 1636.4,940.3 1712.3,942.7 L1734,943.3 L1733.7,547.4 C1733.5,172.7 1733.4,150.9 1731.7,141.2 C1727.7,117.9 1721.5,103.2 1711.9,93.8 C1699.1,81.3 1672.3,72.4 1636,68.7 L1624.5,67.5 L1624.2,48.2 L1624,29 L1825.5,29 L2027,29 L2027,48 C2027,66.9 2027,67 2024.8,67.4 C2023.5,67.7 2017.8,68.4 2012,69 C1988.2,71.5 1966.2,77.3 1951.9,84.6 C1933.8,93.9 1925.6,107.4 1919.3,138 C1917.7,146 1917.6,171.1 1917.3,544.8 L1917,943 L1928.2,943 C1964.3,943 2000.2,938.2 2020.1,930.7 C2042.4,922.3 2056.2,912.1 2072.1,892 C2103.3,852.9 2118.9,810.8 2125.9,747.5 C2126.5,742 2127.3,736 2127.6,734.3 L2128.1,731 L2146,731 L2164,731 L2164,744.8 C2164,752.3 2163.3,786.2 2162.5,820 C2161.7,853.8 2161,914.7 2161,955.3 L2161,1029 L1825,1029 L1489,1029 L1489,942.6 Z" id="Path"></path>
                <path d="M2998,1010.2 L2998,991.3 L3003.1,990.2 C3010.4,988.5 3018.1,984.4 3025.4,978.4 C3033.4,971.8 3036.5,967.9 3047.9,950.2 L3057.1,935.9 L3056.7,557.2 C3056.5,268 3056.1,175.8 3055.2,167 C3051.3,130.5 3045.2,108.8 3035.3,96.6 C3024.1,82.8 3000.5,72.6 2972,69 C2966.8,68.4 2961.5,67.7 2960.3,67.4 C2958,67 2958,66.9 2958,48 L2958,29 L3106.5,29 L3255,29 L3255,48 C3255,69.8 3256.4,67.4 3243.5,68.5 C3224.6,70.3 3201.9,76 3189.5,82.2 C3167.2,93.4 3157.6,107.9 3151.1,140.1 C3145.4,168.4 3145.7,150 3145.3,487 C3145,750.9 3145.2,796.2 3146.3,794.5 C3150.7,788.2 3454.4,302.7 3600.9,67.8 L3643.2,0 L3672.1,0 L3701,0 L3701,433.3 C3701,711.2 3701.4,872.2 3702,882.5 C3704.1,915.8 3708.5,939 3715.6,953.8 C3725,973.5 3747.1,985.9 3780.3,990 L3790,991.2 L3790,1010.1 L3790,1029 L3646,1029 L3502,1029 L3502,1010.1 L3502,991.3 L3512.8,990.1 C3552.8,985.6 3577.8,975.3 3591.2,957.8 C3601.8,943.8 3608.2,919.6 3611,883 C3611.8,872.9 3612,800 3611.8,644.1 L3611.5,419.6 L3422.6,724.3 L3233.6,1029 L3115.8,1029 L2998,1029 L2998,1010.2 Z" id="Path"></path>
                <path d="M3801.5,40.3 C3793.7,36.2 3790,30 3790,21 C3790,8 3798.2,2.84217094e-15 3811.5,2.84217094e-15 C3824.8,2.84217094e-15 3833,8 3833,21 C3833,30 3829.3,36.2 3821.8,40.1 C3817.1,42.5 3805.9,42.6 3801.5,40.3 Z M3820.3,34.4 C3826.9,29.5 3829,19.3 3824.8,13 C3821,7.5 3817.5,5.5 3811.5,5.5 C3807.6,5.5 3805.4,6.1 3803.3,7.6 C3793.2,15.1 3793.5,27.7 3804,34.8 C3806.8,36.7 3808.5,37.1 3812.6,36.8 C3815.5,36.5 3818.8,35.5 3820.3,34.4 Z" id="Shape"></path>
                <path d="M3803.7,31.3 C3803.3,31 3803,26 3803,20.3 L3803,10 L3805.5,10 C3807.8,10 3808,10.4 3808,14.1 C3808,17.9 3808.1,18.1 3810.8,17.8 C3812.9,17.6 3813.7,16.7 3814.6,14 C3815.6,11.1 3816.3,10.4 3818.9,10.2 C3822.6,9.8 3823,11.7 3820.1,17.2 C3818.6,20.2 3818.5,21 3819.6,21.4 C3821.9,22.3 3821.3,28.7 3818.8,30.4 C3816.5,32 3805,32.7 3803.7,31.3 Z M3814.6,25.9 C3815.4,24.6 3814.3,23.5 3811.3,22.5 C3809.3,22 3809,22.2 3809,24.4 C3809,26.5 3809.5,27 3811.4,27 C3812.8,27 3814.2,26.5 3814.6,25.9 Z" id="Shape"></path>
            </g>
        </g>
    </g>
</svg>